<?xml version="1.0" encoding="utf-8"?>
<!-- Generator: Adobe Illustrator 24.3.0, SVG Export Plug-In . SVG Version: 6.00 Build 0)  -->
<svg version="1.1" id="Ebene_1" xmlns="http://www.w3.org/2000/svg" xmlns:xlink="http://www.w3.org/1999/xlink" x="0px" y="0px"
	 viewBox="0 0 334 48" style="enable-background:new 0 0 334 48;" xml:space="preserve">
<style type="text/css">
	.st0{fill:#FF0000;}
	.st1{fill:#FFBBD7;}
	.st2{fill:url(#SVGID_1_);}
	.st3{fill:#FF1515;}
</style>
<path class="st0" d="M85.6,20.2c-0.2-0.2-0.4-0.4-0.9-0.6c-0.4-0.3-0.9-0.5-1.5-0.8c-0.6-0.2-1.2-0.5-1.9-0.6
	c-0.7-0.2-1.4-0.3-2.1-0.3c-1.2,0-2.2,0.2-2.8,0.7c-0.6,0.5-0.9,1.1-0.9,2c0,0.6,0.2,1.2,0.6,1.5c0.4,0.4,1,0.7,1.8,1
	c0.8,0.3,1.8,0.6,3,0.9c1.5,0.4,2.9,0.8,4,1.4c1.2,0.5,2,1.2,2.6,2.1c0.6,0.9,0.9,2,0.9,3.5c0,1.3-0.2,2.3-0.7,3.3
	c-0.5,0.9-1.1,1.6-1.9,2.2c-0.8,0.6-1.7,1-2.8,1.2c-1,0.2-2.1,0.4-3.3,0.4c-1.2,0-2.3-0.1-3.5-0.4c-1.2-0.2-2.3-0.6-3.4-1
	c-1.1-0.5-2.1-1-3-1.7l2-4c0.2,0.2,0.6,0.5,1.1,0.8c0.5,0.3,1.1,0.6,1.9,1c0.7,0.3,1.5,0.6,2.4,0.8c0.9,0.2,1.7,0.3,2.6,0.3
	c1.2,0,2.2-0.2,2.8-0.6c0.6-0.4,1-1,1-1.8c0-0.7-0.3-1.3-0.8-1.7c-0.5-0.4-1.2-0.7-2.1-1c-0.9-0.3-2-0.6-3.2-1
	c-1.5-0.4-2.7-0.9-3.7-1.4c-1-0.5-1.7-1.2-2.2-2c-0.5-0.8-0.7-1.8-0.7-3c0-1.6,0.4-3,1.1-4c0.8-1.1,1.8-1.9,3.1-2.5
	c1.3-0.6,2.8-0.9,4.3-0.9c1.1,0,2.1,0.1,3.1,0.4c1,0.2,1.9,0.6,2.8,1c0.9,0.4,1.6,0.8,2.3,1.3L85.6,20.2z"/>
<path class="st0" d="M97.8,14.1h4.6l8.7,23.6h-4.7l-2.2-5.9h-8.2l-2.2,5.9h-4.7L97.8,14.1z M103.3,28.5l-3.3-9.7l-3.4,9.7H103.3z"/>
<path class="st0" d="M113.7,37.6V14.1h4.6v11.2l9.9-11.2h5l-9,10.5l9.6,13.1h-5.2l-7.3-10.2l-3,3.1v7H113.7z"/>
<path class="st0" d="M145.9,37.8c-1.9,0-3.5-0.3-4.8-0.9c-1.3-0.6-2.4-1.5-3.2-2.6c-0.8-1.1-1.4-2.4-1.8-3.8
	c-0.4-1.4-0.6-2.9-0.6-4.4v-12h4.6v12c0,1,0.1,1.9,0.3,2.9c0.2,0.9,0.5,1.7,1,2.5c0.4,0.7,1,1.3,1.8,1.7c0.7,0.4,1.6,0.6,2.7,0.6
	c1.1,0,2-0.2,2.8-0.6c0.8-0.4,1.3-1,1.8-1.8c0.4-0.7,0.8-1.5,1-2.5c0.2-0.9,0.3-1.9,0.3-2.8v-12h4.5v12c0,1.6-0.2,3.1-0.6,4.5
	c-0.4,1.4-1,2.7-1.8,3.8c-0.8,1.1-1.9,1.9-3.2,2.5C149.2,37.5,147.7,37.8,145.9,37.8z"/>
<path class="st0" d="M160.8,37.6V14.1h10.4c1.1,0,2.1,0.2,3,0.7c0.9,0.4,1.7,1,2.4,1.8c0.7,0.8,1.2,1.6,1.6,2.5
	c0.4,0.9,0.6,1.9,0.6,2.9c0,1-0.2,2-0.5,2.9c-0.3,0.9-0.8,1.7-1.5,2.4c-0.6,0.7-1.4,1.2-2.3,1.6l5.4,8.9h-5l-4.8-7.9h-4.6v7.9H160.8
	z M165.4,25.7h5.7c0.6,0,1.1-0.2,1.5-0.5c0.4-0.4,0.8-0.8,1.1-1.4c0.3-0.6,0.4-1.2,0.4-1.9c0-0.8-0.2-1.4-0.5-2
	c-0.3-0.6-0.7-1-1.2-1.4c-0.5-0.3-1-0.5-1.5-0.5h-5.5V25.7z"/>
<path class="st0" d="M189.3,14.1h4.6l8.7,23.6h-4.7l-2.2-5.9h-8.2l-2.2,5.9h-4.7L189.3,14.1z M194.8,28.5l-3.3-9.7l-3.4,9.7H194.8z"
	/>
<path class="st0" d="M220.1,37.6V14.1h10.4c1.1,0,2.1,0.2,3,0.7c0.9,0.4,1.7,1,2.4,1.8c0.7,0.8,1.2,1.6,1.6,2.5
	c0.4,0.9,0.6,1.9,0.6,2.9c0,1-0.2,2-0.5,2.9c-0.3,0.9-0.8,1.7-1.5,2.4c-0.6,0.7-1.4,1.2-2.3,1.6l5.4,8.9h-5l-4.8-7.9h-4.6v7.9H220.1
	z M224.6,25.7h5.7c0.6,0,1.1-0.2,1.5-0.5c0.4-0.4,0.8-0.8,1.1-1.4c0.3-0.6,0.4-1.2,0.4-1.9c0-0.8-0.2-1.4-0.5-2
	c-0.3-0.6-0.7-1-1.2-1.4c-0.5-0.3-1-0.5-1.5-0.5h-5.5V25.7z"/>
<path class="st0" d="M248.5,14.1h4.6l8.7,23.6h-4.7l-2.2-5.9h-8.2l-2.2,5.9h-4.7L248.5,14.1z M254.1,28.5l-3.3-9.7l-3.4,9.7H254.1z"
	/>
<path class="st0" d="M283.7,37.6V22.2l-6,11.5h-2.6l-6-11.5v15.5h-4.6V14.1h4.9l7,13.4l7-13.4h4.9v23.6H283.7z"/>
<path class="st0" d="M309.5,33.6v4h-16.4V14.1h16.1v4h-11.5v5.7h9.9v3.7h-9.9v6.1H309.5z"/>
<path class="st0" d="M317.7,22.5v15.1h-4.6V14.1h3.7l12.2,15.5V14.1h4.6v23.5h-3.8L317.7,22.5z"/>
<path class="st1" d="M48,19.9c0-0.3,0-0.7-0.1-1l-2.4-0.5l0.7-0.8l0.9-1.1c-0.2-0.3-0.3-0.6-0.5-0.9c-2.1-3.2-6.4-4.7-10.2-3.4
	c-0.8,0.3-1.7,0.7-2.5,1.2c-1.2,0.8-2.4,1.7-3.4,2.8c0,0,0,0,0,0c0.2-0.3,0.3-0.6,0.5-1c0.9-2.1,1.5-4.3,1.5-6.1
	c0-2.2-0.8-4.4-2.1-6c-1-1.3-2.4-2.4-4-2.9c-0.1,0-0.1,0-0.2-0.1c-0.3-0.1-0.6-0.2-1-0.2L24,2.2l-0.3-0.6L22.8,0l0,0
	c-4.1,0.7-7.3,4.8-7.3,9.2c0,1.5,0.3,3.2,1,4.9c0.3,0.7,0.6,1.5,1,2.2c0,0,0,0,0,0c-0.2-0.2-0.5-0.5-0.7-0.7
	c-1.6-1.6-3.5-2.8-5.2-3.4c-1.7-0.6-3.5-0.6-5.2-0.1h0c-1.9,0.5-3.7,1.7-4.8,3.3c-0.1,0.1-0.1,0.2-0.2,0.2c-0.2,0.3-0.4,0.6-0.5,0.9
	l1.6,1.9l-2.1,0.5l0,0l-0.3,0.1c0,0.1,0,0.1,0,0.2c0,0,0,0,0,0.1c0,0,0,0,0,0c0,0.3,0,0.5,0,0.8c0,0,0,0.1,0,0.1
	c0,3.8,2.6,7.6,6.3,8.8c0.9,0.3,2,0.5,3.2,0.6c1.2,0.1,2.5,0,3.8-0.2c0.1,0,0.1,0,0.2,0c-1.2,0.6-2.4,1.4-3.4,2.3c0,0,0,0,0,0
	c-0.9,0.7-1.6,1.5-2.2,2.3c-1.1,1.5-1.6,3.3-1.7,5.1c0,0,0,0,0,0c0,0.7,0,1.3,0.1,1.9c0,0.1,0,0.1,0,0.2c0,0,0,0.1,0,0.1
	c0,0,0,0.1,0,0.1c0,0,0,0,0,0c0,0,0,0.1,0,0.1c0,0.1,0,0.2,0.1,0.3c0,0,0,0.1,0,0.1c0,0,0,0,0,0c0,0,0,0.1,0,0.1c0,0,0,0,0,0.1
	c0,0,0,0.1,0,0.1c0,0,0,0.1,0,0.1c0,0.1,0,0.1,0.1,0.2c0,0,0,0,0,0c0,0,0,0.1,0,0.1c0,0,0,0,0,0c0,0,0,0.1,0.1,0.2c0,0,0,0.1,0,0.1
	c0,0,0,0.1,0,0.1c0,0,0,0,0,0c0.3,0.7,0.6,1.3,1,1.9c0.2,0.3,0.4,0.5,0.7,0.8l2.2-1l-0.1,1l-0.1,1.5c0.3,0.1,0.5,0.3,0.8,0.4
	c3.6,1.4,7.9-0.1,10.3-3.4c0.8-1.2,1.6-2.9,2-4.7c0.2-0.7,0.3-1.3,0.4-2c0-0.1,0-0.2,0-0.2c0.2,1.5,0.6,3,1.1,4.3c0,0,0,0,0,0
	c0.4,1,0.8,1.8,1.3,2.6c0.7,1,1.5,1.8,2.5,2.4c1.3,0.8,2.7,1.3,4.1,1.5c0.1,0,0.1,0,0.2,0c0,0,0.1,0,0.1,0c0.1,0,0.2,0,0.3,0
	c0,0,0.1,0,0.1,0s0.1,0,0.1,0c0,0,0.1,0,0.1,0c0.2,0,0.4,0,0.6,0h0c0,0,0.1,0,0.1,0c0,0,0.1,0,0.2,0c0.1,0,0.1,0,0.2,0
	c0.9-0.1,1.7-0.4,2.5-0.8l-0.3-2.5l0.6,0.3l1.6,0.7c0.2-0.2,0.3-0.4,0.5-0.5c0,0,0,0,0,0c0,0,0,0,0,0c2.4-3.1,2.5-7.9,0.1-11.3
	c-0.4-0.6-1-1.3-1.7-1.9c-1.1-1-2.4-1.9-3.8-2.7c0,0,0,0-0.1,0c0.4,0.1,0.9,0.1,1.3,0.2c0,0,0,0,0,0c2.1,0.2,4.2,0.1,5.8-0.5
	c3-1,5.3-3.7,6.1-6.7c0,0,0,0,0,0c0.2-0.6,0.2-1.3,0.2-2C48,20.1,48,20,48,19.9z"/>
<radialGradient id="SVGID_1_" cx="-115.3706" cy="400.2151" r="0.9999" gradientTransform="matrix(8.8864 0 0 -8.8864 1049.2277 3580.4712)" gradientUnits="userSpaceOnUse">
	<stop  offset="0" style="stop-color:#D4145A"/>
	<stop  offset="0.1803" style="stop-color:#DE3B78"/>
	<stop  offset="0.4565" style="stop-color:#EC72A0"/>
	<stop  offset="0.6952" style="stop-color:#F69ABE"/>
	<stop  offset="0.8842" style="stop-color:#FDB2D0"/>
	<stop  offset="1" style="stop-color:#FFBBD7"/>
</radialGradient>
<path class="st2" d="M30.5,25.8c1.5-0.5,2.5-2.1,2.3-3.7L32,21.9l0.6-0.7c-0.7-1.4-2.5-2.1-4-1.6c-0.7,0.2-1.5,0.8-2.2,1.5
	c0.4-0.9,0.7-1.8,0.7-2.6c0-1.6-1.2-3.2-2.7-3.4L24,15.9l-0.4-0.8c-1.5,0.3-2.7,1.8-2.7,3.4c0,0.8,0.3,1.8,0.7,2.6
	c-0.7-0.7-1.5-1.3-2.2-1.5c-1.5-0.5-3.3,0.2-4,1.6l0.6,0.7l-0.9,0.2c-0.2,1.6,0.8,3.2,2.3,3.7c0.7,0.2,1.7,0.3,2.6,0.1
	c-0.8,0.4-1.6,1.1-2.1,1.7c-0.9,1.3-0.8,3.3,0.2,4.4l0.8-0.4L19,32.6c1.4,0.7,3.2,0.2,4.1-1.1c0.4-0.6,0.8-1.6,0.9-2.6
	c0.1,1,0.5,1.9,0.9,2.6c0.9,1.3,2.7,1.8,4.1,1.1l-0.1-0.9l0.8,0.4c1.1-1.1,1.2-3.1,0.2-4.4c-0.4-0.6-1.2-1.3-2.1-1.7
	C28.8,26.1,29.8,26.1,30.5,25.8z"/>
<path class="st3" d="M21.7,33.9L24,25l-1.5,9.1L21.7,33.9z"/>
<path class="st3" d="M20,33.3l4-8.2l-3.2,8.6L20,33.3z"/>
<path class="st3" d="M18.4,32.2L24,25l-4.9,7.7L18.4,32.2z"/>
<path class="st3" d="M17.1,30.9L24,25l-6.3,6.5L17.1,30.9z"/>
<path class="st3" d="M16.1,29.2L24,25l-7.5,5L16.1,29.2z"/>
<path class="st3" d="M15.4,27.5L24,25l-8.3,3.2L15.4,27.5z"/>
<path class="st3" d="M15.1,25.6L24,25l-8.8,1.4L15.1,25.6z"/>
<path class="st3" d="M15.2,23.6L24,25l-8.9-0.5L15.2,23.6z"/>
<path class="st3" d="M15.7,21.8L24,25l-8.6-2.4L15.7,21.8z"/>
<path class="st3" d="M16.5,20l7.5,5l-7.9-4.2L16.5,20z"/>
<path class="st3" d="M17.7,18.5L24,25l-6.9-5.9L17.7,18.5z"/>
<path class="st3" d="M19.1,17.3L24,25l-5.6-7.2L19.1,17.3z"/>
<path class="st3" d="M20.7,16.4L24,25l-4-8.2L20.7,16.4z"/>
<path class="st3" d="M22.5,15.9L24,25l-2.2-8.9L22.5,15.9z"/>
<path class="st3" d="M24.4,15.8L24,25l-0.4-9.2H24.4z"/>
<path class="st3" d="M26.2,16.1L24,25l1.5-9.1L26.2,16.1z"/>
<path class="st3" d="M28,16.8L24,25l3.2-8.6L28,16.8z"/>
<path class="st3" d="M29.5,17.8L24,25l4.9-7.7L29.5,17.8z"/>
<path class="st3" d="M30.9,19.2L24,25l6.3-6.5L30.9,19.2z"/>
<path class="st3" d="M31.9,20.8L24,25l7.5-5L31.9,20.8z"/>
<path class="st3" d="M32.6,22.6L24,25l8.3-3.2L32.6,22.6z"/>
<path class="st3" d="M32.9,24.5L24,25l8.8-1.4L32.9,24.5z"/>
<path class="st3" d="M32.8,26.4L24,25l8.9,0.5L32.8,26.4z"/>
<path class="st3" d="M32.3,28.3L24,25l8.6,2.4L32.3,28.3z"/>
<path class="st3" d="M31.5,30L24,25l7.9,4.2L31.5,30z"/>
<path class="st3" d="M30.3,31.5L24,25l6.9,5.9L30.3,31.5z"/>
<path class="st3" d="M28.9,32.7L24,25l5.6,7.2L28.9,32.7z"/>
<path class="st3" d="M27.2,33.6L24,25l4,8.2L27.2,33.6z"/>
<path class="st3" d="M25.4,34.1L24,25l2.2,8.9L25.4,34.1z"/>
<path class="st3" d="M23.6,34.2L24,25l0.4,9.2H23.6z"/>
</svg>
